<svg width="64" height="64" viewBox="0 0 64 64" fill="none" xmlns="http://www.w3.org/2000/svg">
<circle cx="32" cy="32" r="32" fill="#2E27A5"/>
<path d="M41.24 23.88C41.24 25.04 41.01 26.06 40.55 26.94C40.09 27.8 39.5 28.55 38.78 29.19C38.06 29.83 37.31 30.37 36.53 30.81C36.05 31.07 35.52 31.37 34.94 31.71C34.38 32.03 33.78 32.31 33.14 32.55C32.5 32.79 31.81 32.91 31.07 32.91C30.87 33.95 30.55 34.93 30.11 35.85C29.67 36.75 29.1 37.55 28.4 38.25C28.22 38.43 28 38.62 27.74 38.82C27.5 39 27.23 39.17 26.93 39.33C27.39 39.49 27.78 39.62 28.1 39.72C28.44 39.84 28.85 39.98 29.33 40.14C29.87 40.32 30.33 40.52 30.71 40.74C31.09 40.96 31.46 41.18 31.82 41.4C32.18 41.62 32.58 41.8 33.02 41.94C33.46 42.08 34.01 42.15 34.67 42.15C35.31 42.15 35.94 42.05 36.56 41.85C37.2 41.67 37.73 41.38 38.15 40.98C38.59 40.6 38.81 40.1 38.81 39.48C38.81 38.9 38.61 38.48 38.21 38.22C37.81 37.94 37.32 37.8 36.74 37.8C36.3 37.8 35.94 38 35.66 38.4C35.38 38.78 35.18 39.11 35.06 39.39C34.86 39.81 34.69 40.02 34.55 40.02C34.39 40.02 34.31 39.85 34.31 39.51C34.31 39.33 34.34 39.13 34.4 38.91C34.48 38.69 34.59 38.48 34.73 38.28C34.95 37.96 35.21 37.7 35.51 37.5C35.81 37.3 36.22 37.2 36.74 37.2C37.48 37.2 38.15 37.41 38.75 37.83C39.35 38.23 39.65 38.8 39.65 39.54C39.65 40.26 39.43 40.89 38.99 41.43C38.57 41.97 38.02 42.39 37.34 42.69C36.68 42.99 35.98 43.14 35.24 43.14C34.34 43.14 33.62 43.06 33.08 42.9C32.54 42.76 32.03 42.57 31.55 42.33C31.09 42.11 30.51 41.89 29.81 41.67C29.31 41.51 28.72 41.25 28.04 40.89C27.36 40.55 26.76 40.28 26.24 40.08C26.18 40.04 26.11 40 26.03 39.96C25.97 39.94 25.9 39.91 25.82 39.87C25.26 40.11 24.67 40.3 24.05 40.44C23.45 40.6 22.86 40.68 22.28 40.68C22.08 40.68 21.83 40.6 21.53 40.44C21.25 40.3 21 40.11 20.78 39.87C20.58 39.63 20.48 39.37 20.48 39.09C20.48 38.91 20.55 38.7 20.69 38.46C20.85 38.2 21.04 37.98 21.26 37.8C21.5 37.62 21.73 37.53 21.95 37.53C22.41 37.53 22.96 37.65 23.6 37.89C24.26 38.13 24.87 38.39 25.43 38.67C25.63 38.47 25.82 38.28 26 38.1C26.18 37.9 26.36 37.71 26.54 37.53C27.14 36.93 27.65 36.22 28.07 35.4C28.49 34.58 28.86 33.72 29.18 32.82C28.26 32.74 27.36 32.59 26.48 32.37C25.6 32.13 24.8 31.8 24.08 31.38C23.38 30.96 22.81 30.44 22.37 29.82C21.95 29.18 21.74 28.42 21.74 27.54C21.74 26.6 21.98 25.72 22.46 24.9C22.96 24.06 23.61 23.38 24.41 22.86C25.21 22.34 26.07 22.08 26.99 22.08C28.13 22.08 29.04 22.28 29.72 22.68C30.4 23.08 30.74 23.85 30.74 24.99C30.74 25.53 30.57 26.06 30.23 26.58C29.91 27.08 29.58 27.44 29.24 27.66C29.16 27.7 29.11 27.72 29.09 27.72C28.91 27.72 28.82 27.62 28.82 27.42C28.82 27.3 28.86 27.21 28.94 27.15C29.16 26.97 29.41 26.68 29.69 26.28C29.99 25.88 30.14 25.45 30.14 24.99C30.14 24.05 29.85 23.43 29.27 23.13C28.69 22.83 27.93 22.68 26.99 22.68C26.17 22.68 25.48 22.92 24.92 23.4C24.36 23.88 23.94 24.5 23.66 25.26C23.38 26 23.24 26.8 23.24 27.66C23.24 28.72 23.53 29.57 24.11 30.21C24.69 30.85 25.45 31.33 26.39 31.65C27.33 31.95 28.33 32.15 29.39 32.25C29.53 31.85 29.66 31.46 29.78 31.08C29.9 30.7 30.02 30.32 30.14 29.94C30.6 28.6 31.01 27.26 31.37 25.92C31.75 24.56 32.23 23.3 32.81 22.14C33.07 21.6 33.37 21.07 33.71 20.55C34.07 20.01 34.5 19.56 35 19.2C35.52 18.84 36.16 18.66 36.92 18.66C37.36 18.66 37.8 18.69 38.24 18.75C38.68 18.81 39.03 18.94 39.29 19.14C39.91 19.64 40.39 20.28 40.73 21.06C41.07 21.82 41.24 22.76 41.24 23.88ZM39.14 23.88C39.24 23.48 39.31 23.12 39.35 22.8C39.41 22.48 39.44 22.19 39.44 21.93C39.44 21.17 39.12 20.54 38.48 20.04C38.28 19.88 38.07 19.79 37.85 19.77C37.65 19.73 37.37 19.71 37.01 19.71C35.97 19.71 35.18 19.99 34.64 20.55C34.12 21.09 33.69 21.71 33.35 22.41C32.77 23.57 32.33 24.81 32.03 26.13C31.73 27.43 31.5 29.03 31.34 30.93C31.32 31.17 31.3 31.41 31.28 31.65C31.26 31.87 31.23 32.09 31.19 32.31C31.87 32.29 32.5 32.17 33.08 31.95C33.66 31.71 34.21 31.43 34.73 31.11C35.25 30.79 35.74 30.5 36.2 30.24C36.74 29.94 37.18 29.53 37.52 29.01C37.88 28.47 38.15 27.89 38.33 27.27C38.53 26.63 38.69 26.01 38.81 25.41C38.93 24.81 39.04 24.3 39.14 23.88ZM24.65 39.3C24.29 39.12 23.92 38.96 23.54 38.82C23.16 38.68 22.8 38.61 22.46 38.61C22.24 38.61 22.03 38.67 21.83 38.79C21.65 38.91 21.56 39.06 21.56 39.24C21.56 39.5 21.63 39.7 21.77 39.84C21.91 40 22.08 40.08 22.28 40.08C22.76 40.08 23.19 40 23.57 39.84C23.97 39.7 24.33 39.52 24.65 39.3Z" fill="white"/>
</svg>
