<svg width="32" height="32" viewBox="0 0 32 32" fill="none" xmlns="http://www.w3.org/2000/svg">
<circle cx="16" cy="16" r="16" fill="#2E27A5"/>
<path d="M20.62 11.94C20.62 12.52 20.505 13.03 20.275 13.47C20.045 13.9 19.75 14.275 19.39 14.595C19.03 14.915 18.655 15.185 18.265 15.405C18.025 15.535 17.76 15.685 17.47 15.855C17.19 16.015 16.89 16.155 16.57 16.275C16.25 16.395 15.905 16.455 15.535 16.455C15.435 16.975 15.275 17.465 15.055 17.925C14.835 18.375 14.55 18.775 14.2 19.125C14.11 19.215 14 19.31 13.87 19.41C13.75 19.5 13.615 19.585 13.465 19.665C13.695 19.745 13.89 19.81 14.05 19.86C14.22 19.92 14.425 19.99 14.665 20.07C14.935 20.16 15.165 20.26 15.355 20.37C15.545 20.48 15.73 20.59 15.91 20.7C16.09 20.81 16.29 20.9 16.51 20.97C16.73 21.04 17.005 21.075 17.335 21.075C17.655 21.075 17.97 21.025 18.28 20.925C18.6 20.835 18.865 20.69 19.075 20.49C19.295 20.3 19.405 20.05 19.405 19.74C19.405 19.45 19.305 19.24 19.105 19.11C18.905 18.97 18.66 18.9 18.37 18.9C18.15 18.9 17.97 19 17.83 19.2C17.69 19.39 17.59 19.555 17.53 19.695C17.43 19.905 17.345 20.01 17.275 20.01C17.195 20.01 17.155 19.925 17.155 19.755C17.155 19.665 17.17 19.565 17.2 19.455C17.24 19.345 17.295 19.24 17.365 19.14C17.475 18.98 17.605 18.85 17.755 18.75C17.905 18.65 18.11 18.6 18.37 18.6C18.74 18.6 19.075 18.705 19.375 18.915C19.675 19.115 19.825 19.4 19.825 19.77C19.825 20.13 19.715 20.445 19.495 20.715C19.285 20.985 19.01 21.195 18.67 21.345C18.34 21.495 17.99 21.57 17.62 21.57C17.17 21.57 16.81 21.53 16.54 21.45C16.27 21.38 16.015 21.285 15.775 21.165C15.545 21.055 15.255 20.945 14.905 20.835C14.655 20.755 14.36 20.625 14.02 20.445C13.68 20.275 13.38 20.14 13.12 20.04C13.09 20.02 13.055 20 13.015 19.98C12.985 19.97 12.95 19.955 12.91 19.935C12.63 20.055 12.335 20.15 12.025 20.22C11.725 20.3 11.43 20.34 11.14 20.34C11.04 20.34 10.915 20.3 10.765 20.22C10.625 20.15 10.5 20.055 10.39 19.935C10.29 19.815 10.24 19.685 10.24 19.545C10.24 19.455 10.275 19.35 10.345 19.23C10.425 19.1 10.52 18.99 10.63 18.9C10.75 18.81 10.865 18.765 10.975 18.765C11.205 18.765 11.48 18.825 11.8 18.945C12.13 19.065 12.435 19.195 12.715 19.335C12.815 19.235 12.91 19.14 13 19.05C13.09 18.95 13.18 18.855 13.27 18.765C13.57 18.465 13.825 18.11 14.035 17.7C14.245 17.29 14.43 16.86 14.59 16.41C14.13 16.37 13.68 16.295 13.24 16.185C12.8 16.065 12.4 15.9 12.04 15.69C11.69 15.48 11.405 15.22 11.185 14.91C10.975 14.59 10.87 14.21 10.87 13.77C10.87 13.3 10.99 12.86 11.23 12.45C11.48 12.03 11.805 11.69 12.205 11.43C12.605 11.17 13.035 11.04 13.495 11.04C14.065 11.04 14.52 11.14 14.86 11.34C15.2 11.54 15.37 11.925 15.37 12.495C15.37 12.765 15.285 13.03 15.115 13.29C14.955 13.54 14.79 13.72 14.62 13.83C14.58 13.85 14.555 13.86 14.545 13.86C14.455 13.86 14.41 13.81 14.41 13.71C14.41 13.65 14.43 13.605 14.47 13.575C14.58 13.485 14.705 13.34 14.845 13.14C14.995 12.94 15.07 12.725 15.07 12.495C15.07 12.025 14.925 11.715 14.635 11.565C14.345 11.415 13.965 11.34 13.495 11.34C13.085 11.34 12.74 11.46 12.46 11.7C12.18 11.94 11.97 12.25 11.83 12.63C11.69 13 11.62 13.4 11.62 13.83C11.62 14.36 11.765 14.785 12.055 15.105C12.345 15.425 12.725 15.665 13.195 15.825C13.665 15.975 14.165 16.075 14.695 16.125C14.765 15.925 14.83 15.73 14.89 15.54C14.95 15.35 15.01 15.16 15.07 14.97C15.3 14.3 15.505 13.63 15.685 12.96C15.875 12.28 16.115 11.65 16.405 11.07C16.535 10.8 16.685 10.535 16.855 10.275C17.035 10.005 17.25 9.78 17.5 9.6C17.76 9.42 18.08 9.33 18.46 9.33C18.68 9.33 18.9 9.345 19.12 9.375C19.34 9.405 19.515 9.47 19.645 9.57C19.955 9.82 20.195 10.14 20.365 10.53C20.535 10.91 20.62 11.38 20.62 11.94ZM19.57 11.94C19.62 11.74 19.655 11.56 19.675 11.4C19.705 11.24 19.72 11.095 19.72 10.965C19.72 10.585 19.56 10.27 19.24 10.02C19.14 9.94 19.035 9.895 18.925 9.885C18.825 9.865 18.685 9.855 18.505 9.855C17.985 9.855 17.59 9.995 17.32 10.275C17.06 10.545 16.845 10.855 16.675 11.205C16.385 11.785 16.165 12.405 16.015 13.065C15.865 13.715 15.75 14.515 15.67 15.465C15.66 15.585 15.65 15.705 15.64 15.825C15.63 15.935 15.615 16.045 15.595 16.155C15.935 16.145 16.25 16.085 16.54 15.975C16.83 15.855 17.105 15.715 17.365 15.555C17.625 15.395 17.87 15.25 18.1 15.12C18.37 14.97 18.59 14.765 18.76 14.505C18.94 14.235 19.075 13.945 19.165 13.635C19.265 13.315 19.345 13.005 19.405 12.705C19.465 12.405 19.52 12.15 19.57 11.94ZM12.325 19.65C12.145 19.56 11.96 19.48 11.77 19.41C11.58 19.34 11.4 19.305 11.23 19.305C11.12 19.305 11.015 19.335 10.915 19.395C10.825 19.455 10.78 19.53 10.78 19.62C10.78 19.75 10.815 19.85 10.885 19.92C10.955 20 11.04 20.04 11.14 20.04C11.38 20.04 11.595 20 11.785 19.92C11.985 19.85 12.165 19.76 12.325 19.65Z" fill="white"/>
</svg>
