<svg width="32" height="32" viewBox="0 0 32 32" fill="none" xmlns="http://www.w3.org/2000/svg">
<path d="M16 32C24.8366 32 32 24.8366 32 16C32 7.16344 24.8366 0 16 0C7.16344 0 0 7.16344 0 16C0 24.8366 7.16344 32 16 32Z" fill="#F70808"/>
<path d="M16 6L14.34 9.016C14.152 9.344 13.815 9.314 13.477 9.131L12.277 8.524L13.171 13.157C13.36 14.004 12.756 14.004 12.458 13.637L10.36 11.35L10.02 12.512C9.97999 12.665 9.80799 12.825 9.54899 12.787L6.89899 12.243L7.59399 14.711C7.74399 15.26 7.85999 15.487 7.44399 15.631L6.49899 16.065L11.062 19.677C11.1527 19.7459 11.2209 19.8402 11.2579 19.9479C11.2949 20.0556 11.2991 20.1719 11.27 20.282L10.87 21.56C12.442 21.383 13.85 21.118 15.422 20.954C15.561 20.94 15.793 21.163 15.792 21.32L15.585 26H16.349L16.229 21.33C16.228 21.173 16.439 20.94 16.577 20.954C18.149 21.118 19.557 21.384 21.128 21.56L20.729 20.282C20.6997 20.1719 20.7038 20.0556 20.7409 19.9478C20.7779 19.8401 20.8462 19.7458 20.937 19.677L25.5 16.065L24.555 15.632C24.139 15.487 24.255 15.26 24.405 14.711L25.101 12.243L22.45 12.787C22.191 12.825 22.018 12.665 21.98 12.512L21.639 11.35L19.542 13.638C19.244 14.004 18.64 14.004 18.829 13.158L19.724 8.524L18.523 9.131C18.185 9.314 17.848 9.344 17.66 9.016L16 6Z" fill="white"/>
</svg>
