<svg width="72" height="72" viewBox="0 0 72 72" fill="none" xmlns="http://www.w3.org/2000/svg">
<g id="01) Icons/Filled/checkmark-circle-fill">
<path id="&#240;&#159;&#142;&#168; Icon &#208;&#161;olor" fill-rule="evenodd" clip-rule="evenodd" d="M48.886 28.8165L35.182 46.8165C34.618 47.5575 33.745 47.9955 32.815 48.0015H32.794C31.873 48.0015 31.003 47.5755 30.433 46.8495L23.137 37.5285C22.117 36.2265 22.345 34.3395 23.65 33.3195C24.952 32.2965 26.842 32.5245 27.862 33.8325L32.761 40.0905L44.113 25.1835C45.115 23.8665 46.996 23.6085 48.319 24.6135C49.636 25.6185 49.891 27.4995 48.886 28.8165ZM36.001 6.00146C19.432 6.00146 6.00098 19.4325 6.00098 36.0015C6.00098 52.5675 19.432 66.0015 36.001 66.0015C52.57 66.0015 66.001 52.5675 66.001 36.0015C66.001 19.4325 52.57 6.00146 36.001 6.00146Z" fill="#23A3DA"/>
<mask id="mask0_8423_4084" style="mask-type:luminance" maskUnits="userSpaceOnUse" x="6" y="6" width="61" height="61">
<path id="&#240;&#159;&#142;&#168; Icon &#208;&#161;olor_2" fill-rule="evenodd" clip-rule="evenodd" d="M48.886 28.8165L35.182 46.8165C34.618 47.5575 33.745 47.9955 32.815 48.0015H32.794C31.873 48.0015 31.003 47.5755 30.433 46.8495L23.137 37.5285C22.117 36.2265 22.345 34.3395 23.65 33.3195C24.952 32.2965 26.842 32.5245 27.862 33.8325L32.761 40.0905L44.113 25.1835C45.115 23.8665 46.996 23.6085 48.319 24.6135C49.636 25.6185 49.891 27.4995 48.886 28.8165ZM36.001 6.00146C19.432 6.00146 6.00098 19.4325 6.00098 36.0015C6.00098 52.5675 19.432 66.0015 36.001 66.0015C52.57 66.0015 66.001 52.5675 66.001 36.0015C66.001 19.4325 52.57 6.00146 36.001 6.00146Z" fill="white"/>
</mask>
<g mask="url(#mask0_8423_4084)">
</g>
</g>
</svg>
