<?xml version="1.0" encoding="utf-8"?>
<!-- Generator: Adobe Illustrator 26.3.1, SVG Export Plug-In . SVG Version: 6.00 Build 0)  -->
<svg version="1.1" id="Layer_1" xmlns="http://www.w3.org/2000/svg" xmlns:xlink="http://www.w3.org/1999/xlink" x="0px" y="0px"
	 viewBox="0 0 500 500" style="enable-background:new 0 0 500 500;" xml:space="preserve">
<style type="text/css">
	.st0{fill:#2E27A5;}
	.st1{fill:#FFFFFF;}
</style>
<circle class="st0" cx="250" cy="250" r="244.66"/>
<g>
	<path class="st1" d="M245.1,142.19c1.56-0.17,2.89-0.45,4.21-0.45c26.55,0.01,53.09-0.06,79.64,0.17
		c9.27,0.08,18.43,1.67,26.77,5.94c16.87,8.64,26.15,22.48,27.56,41.46c0.84,11.39-0.75,22.36-5.9,32.66
		c-4.06,8.13-10.14,14.4-17.93,19.05c-0.64,0.38-1.28,0.75-1.89,1.17c-0.18,0.13-0.26,0.41-0.62,1.04c0.42,0.95,0.86,2.21,1.51,3.36
		c9.26,16.5,18.55,32.99,27.8,49.49c0.46,0.82,0.69,1.78,1.19,3.13c-1.67,0.31-2.95,0.76-4.24,0.76
		c-12.96,0.06-25.92,0.01-38.88,0.08c-2.15,0.01-3.47-0.76-4.43-2.67c-5.95-11.91-11.97-23.79-17.95-35.68
		c-1.4-2.78-2.83-5.54-4.08-8.38c-0.88-1.99-2.19-2.82-4.36-2.69c-2.61,0.16-5.23,0.09-7.85,0.12c-1.22,0.01-2.45,0-3.63,0
		c-0.34-0.95-0.73-1.52-0.73-2.1c-0.03-9.96-0.03-19.92,0.02-29.87c0-0.83,0.39-1.67,0.68-2.8c1.25-0.07,2.46-0.19,3.67-0.19
		c6.73,0,13.47-0.15,20.19,0.1c6.97,0.26,12.11-3.04,15.79-8.34c5.66-8.16,4.45-18.08-1.09-24.24c-3.77-4.18-8.51-6.51-14.14-6.55
		c-15.33-0.11-30.66,0.02-45.99-0.12c-7.2-0.06-14.12-1.56-20.2-5.7c-8.09-5.5-13.33-12.94-15.19-22.62
		c-0.21-1.1-0.28-2.23-0.3-3.34C244.72,144.23,244.92,143.5,245.1,142.19z"/>
	<path class="st1" d="M228.86,142.51c0.14,1.91,0.3,3.1,0.3,4.29c0.01,13.08-0.08,26.17,0.03,39.25c0.02,2.54-0.85,4.12-2.84,5.61
		c-8.1,6.01-16.17,12.08-24.1,18.32c-2.5,1.97-4.54,2.31-7.4,0.74c-11.9-6.53-23.92-12.86-35.89-19.25
		c-1.17-0.62-2.37-1.18-3.55-1.77c-1.56,1.8-1.08,3.61-1.08,5.28c0.03,18.69,0.14,37.38,0.18,56.07
		c0.03,14.45,0.01,28.91-0.01,43.36c0,1.7-0.21,3.41-0.34,5.39c-2.88,0.09-5.44,0.22-8,0.23c-9.6,0.04-19.2,0.04-28.8,0.04
		c-0.75,0-1.5-0.03-2.24-0.1c-1.44-0.14-2.28-0.93-2.37-2.4c-0.06-0.87-0.08-1.74-0.08-2.61c-0.03-47.85-0.05-95.7-0.08-143.55
		c0-1.99-0.08-3.99-0.01-5.98c0.11-2.9,0.75-3.63,3.54-3.64c12.22-0.03,24.44-0.03,36.65,0.1c1.54,0.02,3.21,0.59,4.59,1.33
		c12.07,6.49,24.08,13.08,36.11,19.65c0.66,0.36,1.31,0.73,1.94,1.13c2.18,1.38,3.97,1.12,6.06-0.58
		c7.74-6.28,15.64-12.35,23.51-18.47C226.01,144.16,227.19,143.56,228.86,142.51z"/>
	<path class="st1" d="M286.06,299.44c-3.63,0.86-37.38,1-41.35,0.26c-0.15-1.04-0.46-2.21-0.46-3.39
		c-0.02-33.76-0.02-67.52,0.01-101.28c0-1.45,0.36-2.89,0.55-4.38c1.04-0.19,1.75-0.43,2.47-0.43c5.48,0,10.97-0.13,16.45,0.12
		c12.28,0.57,21.72,10.16,22.26,22.4c0.09,2.11,0.12,4.23,0.12,6.35c-0.02,25.29-0.04,50.58-0.07,75.87
		C286.06,296.43,286.06,297.89,286.06,299.44z"/>
	<path class="st1" d="M262.48,347.8c-0.29,2.96,0.49,4.51,2.93,5.81c2.55,1.36,5.25,1.46,7.98,0.71c1.55-0.43,3.06-1.02,4.82-1.62
		c0.44,0.63,0.88,1.27,1.54,2.22c-1.11,0.71-1.95,1.43-2.92,1.84c-3.44,1.48-7.05,1.58-10.63,0.76c-5.28-1.21-8.54-5.59-8.37-11.74
		c0.3-10.97,10.71-14.26,17.38-10.67c4.11,2.2,6.11,6.98,4.82,11.87c-2.83,0.91-5.81,0.16-8.74,0.32
		C268.34,347.46,265.35,346.93,262.48,347.8z M262.39,344.15c4.77,0.21,9.26,0.33,13.74-0.15c-0.05-4.28-2.57-6.87-6.43-7.07
		C265.69,336.73,262.67,339.47,262.39,344.15z"/>
	<path class="st1" d="M218.86,333.77c6.67-0.05,12.21,4.55,12.26,12.18c0.05,7.66-5.53,12.3-12.13,12.3
		c-6.57,0-12.32-5.49-12.15-12.03C207.04,338.51,212.16,333.77,218.86,333.77z M227.64,345.86c0.06-4.72-4.04-8.98-8.61-8.96
		c-4.34,0.02-8.49,4.2-8.41,8.76c0.1,5.77,4.07,8.93,8.42,9.06C223.69,354.87,227.58,350.85,227.64,345.86z"/>
	<path class="st1" d="M255.6,356.98c-2.24,1.26-3.54,0.32-4.62-0.94c-1.7-1.97-3.27-4.06-4.95-6.06c-0.86-1.02-1.84-1.95-2.69-2.84
		c-2.21,0.42-2.97,1.65-2.99,3.49c-0.01,1.62-0.01,3.23-0.04,4.85c-0.03,1.5-0.66,2.35-2.76,2c-0.23-1-0.73-2.14-0.74-3.29
		c-0.08-9.06-0.08-18.12-0.08-27.18c0-0.72,0.21-1.43,0.36-2.4c1.02,0,1.91,0,3.09,0c0.69,6.19-0.28,12.24,0.57,18.68
		c1.17-0.76,1.91-1.14,2.53-1.66c2.07-1.78,4.15-3.55,6.11-5.44c1.6-1.55,3.32-2.05,5.93-1.1c-3.17,2.9-6.13,5.63-9.42,8.64
		c0.62,1.09,1.07,2.19,1.78,3.08c2.09,2.62,4.3,5.14,6.42,7.74C254.62,355.18,254.98,355.96,255.6,356.98z"/>
	<path class="st1" d="M305.81,357.5c-0.69,0-1.39,0-2.58,0c-0.21-1.37-0.58-2.77-0.62-4.18c-0.12-3.6,0.05-7.22-0.17-10.82
		c-0.19-3.1-2.28-5.17-5.11-5.55c-2.86-0.39-5.77,1.3-6.72,4.18c-0.5,1.51-0.71,3.15-0.8,4.75c-0.14,2.48-0.06,4.97-0.07,7.46
		c-0.01,1.22,0,2.45,0,3.91c-1.24,0.18-2.15,0.32-3.56,0.53c-0.26-7.73-0.16-15.13-0.1-22.48c1.76-1.44,3.09-0.82,4.52,0.52
		c2.43-1.44,5.11-2.26,8.06-2.01c3.45,0.29,6.77,2.7,7.38,5.88c1.05,5.52,1.16,11.12,0.33,16.7
		C306.3,356.73,306.04,357.04,305.81,357.5z"/>
	<path class="st1" d="M193.88,328.99c-2.23-0.07-4.3-0.14-6.38-0.21c-1.56-0.05-3.03-0.23-3.07-2.19c0.76-1.51,2.04-1.56,3.28-1.56
		c5.85-0.01,11.7,0.01,17.54,0.05c0.6,0,1.19,0.21,2.06,0.38c0.05,0.99,0.09,1.89,0.15,3.05c-3.2,0.21-6.13,0.39-9.45,0.61
		c-0.53,9.57,0.16,18.86-0.39,28.34c-1.13,0-2.02,0-3.25,0C193.59,348.01,194.65,338.69,193.88,328.99z"/>
</g>
</svg>
