<?xml version="1.0" encoding="utf-8"?>
<!-- Generator: Adobe Illustrator 28.0.0, SVG Export Plug-In . SVG Version: 6.00 Build 0)  -->
<svg version="1.1" id="Layer_1" xmlns="http://www.w3.org/2000/svg" xmlns:xlink="http://www.w3.org/1999/xlink" x="0px" y="0px"
	 viewBox="0 0 500 500" style="enable-background:new 0 0 500 500;" xml:space="preserve">
<style type="text/css">
	.st0{fill:url(#SVGID_1_);}
	.st1{fill:url(#SVGID_00000080194673453612255050000010731319002998754751_);}
	.st2{fill:url(#SVGID_00000087377373213316522920000016453885466045906339_);}
	.st3{fill:url(#SVGID_00000125600989862332185330000011584804726204124347_);}
	.st4{fill:url(#SVGID_00000092430759083138518030000014785778405464144266_);}
	.st5{fill:url(#SVGID_00000179610821944326169690000013622665875239079834_);}
	.st6{fill:url(#SVGID_00000176740431352618419930000012785792491100148375_);}
</style>
<linearGradient id="SVGID_1_" gradientUnits="userSpaceOnUse" x1="40.1952" y1="228.1784" x2="445.0222" y2="228.1784">
	<stop  offset="0" style="stop-color:#92278F"/>
	<stop  offset="1" style="stop-color:#2E3192"/>
</linearGradient>
<polygon class="st0" points="242.6,35.7 305.2,162.4 445,182.7 343.8,281.4 367.7,420.7 242.6,354.9 117.5,420.7 141.4,281.4 
	40.2,182.7 180.1,162.4 "/>
<linearGradient id="SVGID_00000159451019510453961650000012835853653973450162_" gradientUnits="userSpaceOnUse" x1="47.8534" y1="228.1784" x2="437.364" y2="228.1784">
	<stop  offset="0" style="stop-color:#2E3192"/>
	<stop  offset="1" style="stop-color:#92278F"/>
</linearGradient>
<polygon style="fill:url(#SVGID_00000159451019510453961650000012835853653973450162_);" points="242.6,43 302.8,164.9 437.4,184.5 
	340,279.4 363,413.4 242.6,350.1 122.2,413.4 145.2,279.4 47.9,184.5 182.4,164.9 "/>
<linearGradient id="SVGID_00000116955507479536342700000003059578162998326970_" gradientUnits="userSpaceOnUse" x1="307.3913" y1="125.528" x2="373.7373" y2="125.528" gradientTransform="matrix(0.7071 -0.7071 0.7071 0.7071 10.983 277.5722)">
	<stop  offset="0" style="stop-color:#92278F"/>
	<stop  offset="1" style="stop-color:#2E3192"/>
</linearGradient>
<path style="fill:url(#SVGID_00000116955507479536342700000003059578162998326970_);" d="M364,102.1c4.4,4.4,4.4,11.6,0,16
	c-4.4,4.4-46.9,30.9-46.9,30.9s26.5-42.5,30.9-46.9C352.4,97.6,359.6,97.6,364,102.1z"/>
<linearGradient id="SVGID_00000163763649246861052730000003908255490826580870_" gradientUnits="userSpaceOnUse" x1="12.3685" y1="87.7093" x2="78.7145" y2="87.7093" gradientTransform="matrix(-0.9295 0.3688 -0.3688 -0.9295 166.7764 364.6172)">
	<stop  offset="0" style="stop-color:#92278F"/>
	<stop  offset="1" style="stop-color:#2E3192"/>
</linearGradient>
<path style="fill:url(#SVGID_00000163763649246861052730000003908255490826580870_);" d="M61.3,312.1c-2.3-5.8,0.5-12.4,6.4-14.7
	c5.8-2.3,55.3-9.7,55.3-9.7s-41.1,28.5-47,30.8S63.6,317.9,61.3,312.1z"/>
<linearGradient id="SVGID_00000012474518513059382750000013603277528695085478_" gradientUnits="userSpaceOnUse" x1="-98.5656" y1="267.892" x2="-32.2196" y2="267.892" gradientTransform="matrix(-0.767 -0.6417 0.6417 -0.767 -80.6136 289.3986)">
	<stop  offset="0" style="stop-color:#92278F"/>
	<stop  offset="1" style="stop-color:#2E3192"/>
</linearGradient>
<path style="fill:url(#SVGID_00000012474518513059382750000013603277528695085478_);" d="M116,104.6c4-4.8,11.2-5.4,16-1.4
	c4.8,4,34.9,44,34.9,44s-44.7-22.6-49.5-26.6S112,109.4,116,104.6z"/>
<linearGradient id="SVGID_00000091731110864915314550000014324114996630395803_" gradientUnits="userSpaceOnUse" x1="-380.2064" y1="303.1322" x2="-313.8604" y2="303.1322" gradientTransform="matrix(0.9617 0.2741 -0.2741 0.9617 816.6085 98.4845)">
	<stop  offset="0" style="stop-color:#92278F"/>
	<stop  offset="1" style="stop-color:#2E3192"/>
</linearGradient>
<path style="fill:url(#SVGID_00000091731110864915314550000014324114996630395803_);" d="M431.7,304c-1.7,6-8,9.5-14,7.8
	c-6-1.7-49.8-26-49.8-26s50,2.5,56,4.2C429.9,291.7,433.4,298,431.7,304z"/>
<linearGradient id="SVGID_00000069366204696914826620000008106107067990471333_" gradientUnits="userSpaceOnUse" x1="-489.0879" y1="461.5107" x2="-422.7419" y2="461.5107" gradientTransform="matrix(4.150683e-02 0.9991 -0.9991 4.150683e-02 721.7366 836.219)">
	<stop  offset="0" style="stop-color:#92278F"/>
	<stop  offset="1" style="stop-color:#2E3192"/>
</linearGradient>
<path style="fill:url(#SVGID_00000069366204696914826620000008106107067990471333_);" d="M243.1,433c-6.3,0.3-11.5-4.6-11.8-10.9
	c-0.3-6.3,9-55.4,9-55.4s13.3,48.2,13.6,54.5C254.2,427.5,249.3,432.7,243.1,433z"/>
</svg>
